<?xml version="1.0" standalone="no"?>
<!DOCTYPE svg PUBLIC "-//W3C//DTD SVG 1.1//EN" "http://www.w3.org/Graphics/SVG/1.1/DTD/svg11.dtd" >
<svg xmlns="http://www.w3.org/2000/svg">
<metadata>Generated by IcoMoon</metadata>
<defs>
<font id="icomoon" horiz-adv-x="1024">
<font-face units-per-em="1024" ascent="960" descent="-64" />
<missing-glyph horiz-adv-x="1024" />
<glyph unicode="&#x20;" horiz-adv-x="512" d="" />
<glyph unicode="&#xe900;" glyph-name="css3" horiz-adv-x="1025" d="M152.416 911.494l-34.366-171.934h699.757l-21.894-111.066h-700.208l-33.895-171.893h699.696l-39.015-196.060-282.016-93.432-244.414 93.432 16.733 85.035h-171.893l-40.9-206.362 404.244-154.71 466.013 154.71 153.768 772.279z" />
<glyph unicode="&#xe901;" glyph-name="down" d="M937.004 671.687c-6.183 0-11.775-2.512-15.814-6.554l-409.189-387.649-409.189 387.649c-4.040 4.042-9.632 6.554-15.814 6.554-12.364 0-22.368-10.006-22.368-22.368 0-6.183 2.49-11.775 6.554-15.814l425.004-402.635c4.039-4.065 9.631-6.554 15.814-6.554s11.774 2.49 15.814 6.554l425.004 402.635c4.065 4.040 6.554 9.632 6.554 15.814 0 12.363-10.005 22.368-22.368 22.368z" />
<glyph unicode="&#xe902;" glyph-name="double_down" d="M159.417 802.55l352.753-343.768 357.258 345.264 41.976-1.495-399.234-422.216-399.221 422.216h46.468zM159.417 521.245l352.753-343.769 357.258 344.761 41.976-0.992-399.234-422.718-399.221 422.718h46.468z" />
<glyph unicode="&#xe903;" glyph-name="education" d="M502.214 324.902c-9.694 0-19.167 2.068-25.327 5.528l-423.477 237.587c-5.94 3.338-9.621 9.619-9.621 16.437 0 6.815 3.682 13.105 9.621 16.437l423.525 237.586c12.1 6.859 38.334 6.908 50.63-0.061l423.414-237.525c5.94-3.332 9.621-9.621 9.621-16.437s-3.682-13.099-9.621-16.437l-423.487-237.605c-6.111-3.449-15.585-5.511-25.279-5.511zM495.343 363.298c0.195 0 2.944-0.7 6.872-0.7 4.073 0 6.798 0.742 7.509 1.030l393.523 220.825-394.185 221.125c-0.172 0-2.922 0.705-6.847 0.705-4.099 0-6.8-0.736-7.511-1.024l-393.547-220.806 394.187-221.156zM502.336 52.368c-84.041 0-162.76 13.021-221.659 36.678-50.677 20.357-81.085 46.935-81.317 71.109 0 0.834-0.062 1.632-0.16 2.406l-0.16 2.405v344.513h37.697v-343.422c0.158-1.484 0.258-2.981 0.294-4.491 1.939-4.307 15.755-20.7 57.697-37.537 54.531-21.903 128.267-33.966 207.609-33.966 79.369 0 153.091 12.063 207.597 33.966 42.090 16.898 55.856 33.34 57.697 37.561l0.074 1.681-0.050 346.189h37.697v-347.404l-18.897-1.73 18.847-0.184c-0.244-24.174-30.651-50.752-81.329-71.096-58.852-23.658-137.581-36.677-221.636-36.677zM936.428 152.719c-10.407 0-18.849 8.43-18.849 18.847v291.762c0 10.413 8.442 18.848 18.849 18.848s18.849-8.435 18.849-18.848v-291.762c0-10.416-8.442-18.847-18.849-18.847z" />
<glyph unicode="&#xe904;" glyph-name="email" d="M430.080 478.535c45.196-45.596 118.487-45.596 163.685 0l360.685 324.94c0.547-3.751 1.139-7.491 1.139-11.402v-521.508c0-42.995-34.548-77.839-77.145-77.839h-733.045c-42.597 0-77.145 34.845-77.145 77.839v521.508c0 3.911 0.594 7.651 1.14 11.402l360.687-324.94zM910.961 885.773l-348.917-313.059c-38.47-38.812-62.276-38.812-100.77 0l-348.736 312.877c10.011 4.789 21.070 7.674 32.859 7.674h733.044c11.653-0.001 22.623-2.805 32.519-7.492z" />
<glyph unicode="&#xe905;" horiz-adv-x="1025" d="M1000.18 602.064l-433.269-255.365c-14.874-8.828-32.79-14.046-51.924-14.046s-37.050 5.218-52.402 14.308l0.477-0.262-437.1 255.365c-15.18 9.143-25.176 25.536-25.176 44.263s9.997 35.121 24.945 44.134l0.232 0.13 432.844 255.365c14.803 8.834 32.647 14.057 51.711 14.057s36.909-5.223 52.181-14.315l-0.469 0.259 437.951-255.365c15.406-8.987 25.593-25.436 25.593-44.263s-10.188-35.276-25.351-44.133l-0.242-0.131z" />
<glyph unicode="&#xe906;" horiz-adv-x="1025" d="M1000.18 491.832l-46.391 27.665-46.391-27.665 69.8-42.561c1.385-0.928 2.284-2.487 2.284-4.256s-0.899-3.328-2.266-4.244l-0.018-0.012-433.695-255.365c-8.109-4.809-17.874-7.65-28.303-7.65s-20.194 2.842-28.564 7.793l0.261-0.143-438.377 255.365c-1.385 0.928-2.284 2.487-2.284 4.256s0.899 3.328 2.266 4.244l0.018 0.012 69.8 42.561-46.391 26.813-46.391-26.813c-14.912-8.712-24.918-24.402-25.534-42.475l-0.002-0.085c0.703-18.134 10.68-33.791 25.297-42.43l0.24-0.131 436.674-255.365c14.874-8.828 32.79-14.046 51.924-14.046s37.050 5.218 52.402 14.308l-0.477-0.262 434.12 255.365c14.856 8.77 24.833 24.427 25.534 42.464l0.003 0.097c-0.618 18.158-10.624 33.849-25.295 42.43l-0.242 0.131z" />
<glyph unicode="&#xe907;" horiz-adv-x="1025" d="M1000.18 294.35l-46.391 27.239-46.391-27.239 69.8-42.561c1.224-1.022 1.998-2.549 1.998-4.256s-0.773-3.234-1.989-4.249l-0.009-0.007-433.695-255.365c-8.109-4.809-17.874-7.65-28.303-7.65s-20.194 2.842-28.564 7.793l0.261-0.143-438.377 255.365c-1.224 1.022-1.998 2.549-1.998 4.256s0.773 3.234 1.989 4.249l0.009 0.007 69.8 42.561-46.391 27.239-46.391-26.813c-15.383-9.098-25.537-25.601-25.537-44.476s10.154-35.378 25.299-44.345l0.239-0.131 436.674-255.365c14.874-8.828 32.79-14.046 51.924-14.046s37.050 5.218 52.402 14.308l-0.477-0.262 434.12 255.365c15.383 9.098 25.537 25.601 25.537 44.476s-10.154 35.378-25.299 44.345l-0.239 0.131z" />
<glyph unicode="&#xe908;" glyph-name="education_mark" d="M300.8 755.2v-697.6l268.8 249.6 268.8-249.6v697.6h-537.6zM723.2 857.6h-531.2v-697.6l51.2 51.2v595.2h480v51.2z" />
<glyph unicode="&#xe909;" glyph-name="git" d="M943.078 487.658l-392.002 392.002c-21.859 21.859-57.626 21.859-79.485 0l-392.002-392.002c-21.859-21.859-21.859-57.626 0-79.485l392.002-392.002c21.859-21.859 57.626-21.859 79.485 0l392.002 392.002c21.858 21.858 21.858 57.626 0 79.485zM693.995 374.538c-37.939 0-68.693 30.755-68.693 68.693 0 0.022 0 0.048 0 0.073 0 8.414 1.516 16.474 4.291 23.921l-0.155-0.474-86.88 86.88v-237.369c21.391-11.639 35.908-34.313 35.908-60.378 0-37.939-30.755-68.693-68.693-68.693s-68.693 30.755-68.693 68.693c0 27.314 15.944 50.903 39.030 61.973v250.25c-23.022 10.642-39.030 33.879-39.030 60.907 0 7.808 1.401 15.272 3.853 22.243l-100.872 100.871 44.159 44.159 102.518-102.518c5.58 1.503 11.418 2.378 17.473 2.378 37.076 0 67.132-30.056 67.132-67.132 0-6.055-0.875-11.893-2.378-17.473l102.241-102.241c5.629 1.664 12.097 2.622 18.788 2.623h0.001c37.939 0 68.693-30.755 68.693-68.693s-30.754-68.694-68.693-68.694z" />
<glyph unicode="&#xe90a;" glyph-name="github" d="M855.557 743.145c35.621 66.153-5.089 152.661-5.089 152.661-91.597 0-157.75-61.064-157.75-61.064-35.621 20.355-152.661 20.355-152.661 20.355s-117.040 0-152.661-20.355c0 0-66.153 61.064-157.75 61.064 0 0-40.71-86.508-5.089-152.661 0 0-81.419-76.331-50.887-239.169 28.691-153.018 162.838-193.371 249.346-193.371 0 0-35.621-30.532-30.532-81.419 0 0-50.887-30.532-101.774-10.177s-76.331 71.242-76.331 71.242-50.887 66.153-101.774 40.71c0 0-15.266-15.266 40.71-40.71 0 0 40.71-61.064 55.976-96.685s96.685-66.153 178.105-45.798v-117.040s0-10.177-20.355-15.266-20.355-15.266-10.177-15.266h366.386c10.177 0 10.177 10.177-10.177 15.266s-20.355 15.266-20.355 15.266v117.040s0.447 61.030 0 81.419c-1.119 51.128-35.621 81.419-35.621 81.419 86.508 0 220.655 40.353 249.346 193.371 30.533 162.837-50.886 239.168-50.886 239.168z" />
<glyph unicode="&#xe90b;" glyph-name="home" d="M727.467-6.4h-136.533c-14.933 0-25.6 12.8-25.6 25.6v294.4h-106.667v-294.4c0-14.933-12.8-25.6-25.6-25.6h-136.533c-70.4 0-128 64-128 140.8v234.667h-21.333c-36.267 0-66.133 17.067-78.933 49.067-10.667 25.6-8.533 66.133 27.733 106.667l322.133 337.067c25.6 25.6 59.733 40.533 93.867 40.533 36.267 0 70.4-14.933 93.867-40.533l322.133-339.2c38.4-40.533 40.533-81.067 27.733-106.667-12.8-32-42.667-49.067-78.933-49.067h-21.333v-234.667c0-76.8-55.467-138.667-128-138.667zM618.667 46.933h110.933c46.933 0 74.667 44.8 74.667 87.467v260.267c0 14.933 12.8 25.6 25.6 25.6h46.933c14.933 0 25.6 6.4 29.867 17.067 0 2.133 8.533 21.333-19.2 49.067l-320 339.2c-29.867 32-81.067 32-110.933 0l-322.133-339.2c-25.6-27.733-19.2-46.933-19.2-49.067 4.267-12.8 14.933-17.067 29.867-17.067h46.933c14.933 0 25.6-12.8 25.6-25.6v-260.267c0-42.667 27.733-87.467 74.667-87.467h113.067v258.133c0 17.067 0 36.267 12.8 49.067s32 12.8 38.4 12.8h108.8c6.4 0 25.6 0 38.4-12.8s12.8-32 12.8-49.067v-258.133z" />
<glyph unicode="&#xe90c;" glyph-name="html5" d="M60.544 960l82.144-921.632 368.736-102.368 369.728 102.528 82.304 921.472h-902.912zM784.64 658.56h-432.544l10.304-115.744h411.968l-31.040-347.008-231.872-64.224-231.584 64.256-15.84 177.504h113.504l8.064-90.24 125.856-33.92 0.288 0.064 125.92 33.984 13.056 146.56h-391.712l-30.496 341.792h566.208l-10.080-113.024z" />
<glyph unicode="&#xe90d;" glyph-name="javascript" d="M416 783.998h-160v-424.996c0-105.16-36.064-134.522-98.824-134.522-29.41 0-55.896 5.042-76.5 12.126l-16.676-124.414c29.4-10.124 74.518-16.192 109.814-16.192 144.096 0 242.186 67.742 242.186 261.96v426.038zM764.926 800c-154.886 0-252.926-87.996-252.926-204.308 0-100.166 75.502-162.88 185.282-203.33 79.4-28.316 110.784-53.616 110.784-95.078 0-45.512-36.278-74.85-104.896-74.85-63.726 0-121.578 21.28-160.788 42.51v0.042l-30.382-126.44c37.278-21.276 106.882-42.51 182.334-42.51 181.374 0.004 265.666 97.104 265.666 211.396 0 97.1-53.916 159.8-170.556 204.326-86.278 34.382-122.54 53.59-122.54 97.084 0 34.4 31.376 65.738 96.086 65.738 63.692 0 107.488-21.414 133.010-34.582l38.25 128c-40 17.562-93.874 32.002-169.324 32.002v0z" />
<glyph unicode="&#xe90e;" glyph-name="jquery" d="M65.451 709.376c-90.581-130.133-79.36-299.392-10.112-437.589 1.579-3.371 3.328-6.571 5.035-9.771 0.981-2.219 2.091-4.267 3.285-6.357 0.555-1.195 1.323-2.432 2.005-3.541 1.109-2.219 2.304-4.352 3.456-6.485l6.699-11.307c1.237-2.091 2.432-4.139 3.84-6.229 2.347-4.011 5.12-7.979 7.552-11.989 1.109-1.664 2.133-3.328 3.371-4.992 4.744-7.429 9.1-13.604 13.699-19.583l-0.472 0.639c3.328-4.565 6.656-9.003 10.24-13.44 1.152-1.621 2.432-3.243 3.627-4.864l9.429-11.477c1.152-1.323 2.304-2.859 3.541-4.224 4.181-5.035 8.619-9.941 13.056-14.891 0-0.085 0.128-0.171 0.213-0.299 5.515-6.937 11.444-13.083 17.91-18.622l0.181-0.151c3.413-3.499 6.827-6.997 10.453-10.411l4.309-4.139c4.736-4.437 9.472-8.875 14.464-13.141 0.085 0 0.128-0.085 0.213-0.128l2.432-2.133c4.352-3.797 8.747-7.595 13.227-11.093l5.333-4.48c3.627-2.901 7.381-5.675 11.093-8.533l5.803-4.437c3.968-2.987 8.192-5.931 12.245-8.832 1.493-1.067 2.987-2.133 4.523-3.115l1.237-0.981 11.989-7.893 5.12-3.413c6.272-4.011 12.501-7.808 18.688-11.563 1.792-0.896 3.584-1.877 5.248-2.901 4.608-2.645 9.387-5.333 14.037-7.808 2.56-1.451 5.205-2.688 7.851-4.011 3.2-1.792 6.528-3.541 9.941-5.333 0.922-0.284 1.714-0.617 2.464-1.018l-0.074 0.036c1.408-0.64 2.731-1.323 4.096-2.005 5.12-2.56 10.453-4.992 16-7.424 1.024-0.427 2.133-0.853 3.243-1.451 6.144-2.688 12.288-5.248 18.645-7.765 1.451-0.427 2.987-1.152 4.48-1.707 5.76-2.176 11.691-4.395 17.536-6.485l2.133-0.768c6.528-2.219 12.971-4.352 19.584-6.4 1.536-0.427 3.115-0.981 4.736-1.408 6.784-2.048 13.355-4.48 20.181-5.803 437.76-79.787 564.992 263.211 564.992 263.211-106.88-139.179-296.533-175.872-476.16-135.040-6.656 1.536-13.312 3.669-20.011 5.632-12.213 3.523-20.264 6.157-28.234 8.962l4.042-1.239-2.645 1.024c-5.803 1.963-11.392 4.139-17.067 6.315-1.075 0.477-2.629 1.069-4.209 1.606l-0.485 0.143c-6.272 2.517-12.373 5.12-18.432 7.808-1.323 0.427-2.432 1.024-3.755 1.536-11.195 4.964-16.254 7.391-21.289 9.86l5.886-2.607c-1.916 0.845-3.4 1.587-4.851 2.384l0.328-0.165c-4.011 1.877-8.021 4.011-11.947 6.059-3.648 1.737-6.263 3.103-8.837 4.534l0.858-0.438c-4.821 2.56-9.643 5.333-14.464 7.979-1.451 1.024-3.115 1.877-4.779 2.816-9.234 5.41-15.333 9.205-21.366 13.094l2.678-1.616c-2.051 1.276-3.692 2.387-5.294 3.55l0.259-0.179c-5.51 3.395-9.851 6.294-14.095 9.32l0.783-0.53c-1.493 0.981-2.859 2.048-4.395 3.115-5.455 3.768-9.54 6.74-13.566 9.786l1.022-0.741c-1.792 1.451-3.712 2.816-5.632 4.267-3.755 2.944-7.552 5.76-11.307 8.875l-5.035 4.011c-5.554 4.486-10.192 8.408-14.749 12.42l0.498-0.43c-0.472 0.462-0.988 0.883-1.54 1.255l-0.039 0.025-14.805 13.483-4.267 4.011c-3.499 3.541-7.083 6.955-10.667 10.453l-4.139 4.267c-4.421 4.399-8.721 8.889-12.913 13.48l-0.271 0.301-0.64 0.683c-3.872 4.244-8.234 9.16-12.533 14.132l-0.822 0.972c-1.152 1.323-2.219 2.731-3.413 4.139l-9.643 11.819c-3.354 4.199-8.113 10.421-12.792 16.705l-1.715 2.409c-99.627 136.021-135.68 323.755-55.936 477.739zM346.496 818.987c-65.664-94.251-61.952-220.288-10.837-319.957 9.468-18.681 19.064-34.49 29.699-49.509l-0.814 1.211c9.813-14.080 20.651-30.72 33.792-42.069 4.565-5.205 9.515-10.24 14.677-15.317l3.84-3.84c4.864-4.693 9.856-9.301 14.933-13.867l0.64-0.555c5.135-4.509 10.885-9.285 16.762-13.908l0.902-0.684c1.451-0.981 2.688-2.133 4.096-3.115 5.973-4.608 11.989-9.045 18.219-13.44l0.64-0.384c2.645-1.92 5.461-3.669 8.448-5.547 1.195-0.768 2.56-1.792 3.84-2.56 4.523-2.901 8.96-5.632 13.525-8.405 0.725-0.299 1.365-0.683 2.048-0.981 3.84-2.347 8.021-4.608 12.032-6.699 1.408-0.853 2.773-1.493 4.224-2.304 2.859-1.408 5.675-2.901 8.405-4.352l1.365-0.597c5.76-2.816 11.648-5.461 17.408-8.107 1.451-0.555 2.688-1.024 3.925-1.621 4.736-2.048 9.557-4.011 14.293-5.845 2.133-0.725 4.139-1.579 6.144-2.219 4.352-1.621 8.917-3.115 13.227-4.608l5.973-1.92c6.229-1.92 12.544-4.437 19.115-5.504 337.92-56.021 416.171 204.245 416.171 204.245-70.443-101.376-206.763-149.675-352.043-111.957-8.85 2.258-15.233 4.159-21.535 6.238l2.421-0.692c-2.048 0.555-3.84 1.195-5.803 1.792-4.437 1.536-9.003 3.029-13.312 4.651l-6.144 2.304c-4.779 1.92-9.643 3.712-14.293 5.76-1.451 0.64-2.773 1.067-3.883 1.707-5.973 2.688-11.989 5.333-17.792 8.192l-8.789 4.565-5.077 2.56c-5.040 2.661-8.737 4.786-12.371 7.003l1.064-0.603c-1.052 0.503-1.919 0.986-2.754 1.515l0.108-0.064c-4.523 2.816-9.216 5.547-13.525 8.448-1.451 0.811-2.773 1.792-4.139 2.645l-8.875 5.803c-6.144 4.267-12.16 8.875-18.219 13.312-1.365 1.237-2.688 2.261-4.011 3.371-63.872 50.219-114.261 118.869-138.155 196.608-25.173 80.811-19.627 171.435 23.851 244.992zM582.827 900.949c-38.741-56.832-42.453-127.403-15.787-190.080 28.331-66.56 86.272-118.827 153.771-143.573 2.773-1.067 5.461-1.963 8.32-2.987l3.755-1.152c3.925-1.237 7.893-2.688 11.947-3.584 186.709-36.011 237.227 95.872 250.837 115.243-44.459-63.829-118.997-79.147-210.432-56.917-8.94 2.239-16.282 4.577-23.435 7.301l1.419-0.474c-10.798 3.798-19.492 7.456-27.941 11.542l1.615-0.704c-17.602 8.611-32.708 17.983-46.768 28.661l0.688-0.501c-81.92 62.037-132.651 180.48-79.232 276.949z" />
<glyph unicode="&#xe90f;" glyph-name="last_song" d="M174.087 896.16c-13.835 0-25.030-11.195-25.030-25.030v-846.258c0-13.836 11.195-25.031 25.030-25.031 13.836 0 25.030 11.194 25.030 25.031v404.728c0-14.396 8.678-26.986 21.853-35.272l550.794-347.115c10.17-6.404 24.836-9.778 36.665-9.778 35.004 0 66.513 28.501 66.513 63.457v694.217c0 34.98-32.756 63.432-67.734 63.432-11.808 0-25.568-3.373-35.738-9.753l-549.449-347.103c-13.175-8.262-22.904-20.874-22.904-35.248v404.693c0 13.835-11.195 25.030-25.030 25.030zM242.701 459.299l553.238 347.079c2.223 1.393 8.848 2.102 11.269 2.102 6.427 0 17.672-5.108 17.672-13.371v-694.217c0-11.342-16.524-16.379-24.664-11.294l-555.365 347.115c-5.622 3.569-7.333 9.093-7.333 11.293 0 2.249-0.44 7.773 5.182 11.293z" />
<glyph unicode="&#xe910;" glyph-name="loading" d="M512 630.675c-0.070 0.001-0.152 0.001-0.234 0.001-18.607 0-33.709-15.005-33.867-33.575v-224.115c0-1.535 0.744-2.884 0.93-4.372 0.326-2.466 0.605-4.746 1.443-6.979 0.79-2 1.86-3.722 2.93-5.443 1.117-1.907 2.187-3.722 3.722-5.443 1.582-1.721 3.443-2.884 5.397-4.466 1.256-0.838 2.093-2.187 3.536-2.885l195.162-103.745c4.644-2.52 10.169-4.001 16.039-4.001 0.037 0 0.073 0 0.11 0h-0.006c0.049 0 0.107 0 0.166 0 12.798 0 23.952 7.041 29.8 17.46l0.089 0.172c2.564 4.617 4.073 10.125 4.073 15.985 0 12.794-7.193 23.909-17.756 29.519l-0.181 0.088-177.25 94.302v203.908c-0.209 18.596-15.333 33.59-33.959 33.59-0.050 0-0.101 0-0.151 0h0.008zM966.386 451.424c-0.055 0-0.121 0.001-0.187 0.001-18.614 0-33.716-15.037-33.821-33.626v-0.010c0-228.612-188.556-414.516-420.331-414.516-231.823 0-420.332 185.904-420.332 414.516 0 228.659 188.51 414.563 420.332 414.563 52.78-0.262 103.193-10.067 149.707-27.776l-2.929 0.979-44.754-11.817c-14.674-3.793-25.339-16.913-25.339-32.524 0-18.525 15.018-33.543 33.543-33.543 0.207 0 0.413 0.002 0.618 0.006h-0.031c0.043 0 0.095 0 0.146 0 3.090 0 6.085 0.408 8.934 1.172l-0.24-0.055 109.56 28.983c14.87 3.89 27.069 13.314 34.517 25.885l0.143 0.261c4.765 7.967 7.582 17.573 7.582 27.838 0 5.226-0.73 10.281-2.094 15.070l0.094-0.387-29.355 108.166c-4.060 14.538-17.187 25.025-32.764 25.025-3.19 0-6.278-0.44-9.206-1.263l0.239 0.057c-14.616-3.854-25.218-16.954-25.218-32.53 0-3.057 0.408-6.019 1.174-8.833l-0.055 0.235 14.98-55.22c-55.952 23.696-121.014 37.475-189.293 37.496h-0.007c-269.366 0-488.487-216.144-488.487-481.788s219.121-481.788 488.487-481.788c269.32 0 488.487 216.144 488.487 481.741 0 18.61-15.26 33.683-34.1 33.683z" />
<glyph unicode="&#xe911;" glyph-name="location" d="M511.914 352.102c-105.961 0-191.968 86.179-191.968 191.968s86.179 191.968 191.968 191.968 191.968-86.179 191.968-191.968-86.007-191.968-191.968-191.968zM511.914 672.048c-70.526 0-127.978-57.453-127.978-127.978s57.453-127.978 127.978-127.978 127.978 57.453 127.978 127.978-57.281 127.978-127.978 127.978zM511.914-0.011c-7.913 0-15.825 2.924-22.018 8.773-12.729 12.213-13.245 32.511-1.032 45.24 86.523 90.651 311.174 355.553 311.174 489.896 0 158.769-129.183 287.952-287.952 287.952s-287.952-129.183-287.952-287.952c0-75.686 72.59-206.073 204.181-367.422 11.181-13.761 9.117-33.887-4.472-45.068-13.761-11.181-33.887-9.117-45.068 4.472-145.18 178.035-218.802 315.13-218.802 408.189 0 194.032 157.909 351.941 351.941 351.941s352.113-157.909 352.113-351.941c0-187.323-315.474-519.999-328.891-534.104-6.365-6.537-14.621-9.977-23.222-9.977z" />
<glyph unicode="&#xe912;" glyph-name="music" d="M481 448.6c49.4 0 89.5-32.1 89.5-71.6s-40.2-71.6-89.5-71.6-89.5 32.1-89.5 71.6c0 39.5 40.1 71.6 89.5 71.6zM481 484.4c-69.2 0-125.3-48.1-125.3-107.4s56.1-107.4 125.3-107.4 125.3 48 125.3 107.4c0 59.3-56.1 107.4-125.3 107.4zM217.4 517.2c-0.8 0-1.5 0.1-2.3 0.3-4.8 1.2-7.6 6.1-6.4 10.9 1.4 5.2 2.9 10.3 4.5 15.4 1.5 4.7 6.5 7.3 11.2 5.8s7.3-6.5 5.8-11.2c-1.5-4.8-2.9-9.6-4.2-14.5-1-4-4.6-6.7-8.6-6.7zM235.2 566.9c-1.3 0-2.5 0.3-3.7 0.8-4.5 2.1-6.5 7.4-4.4 11.9 30.4 65.9 83.1 119.6 148.5 151.2 4.5 2.2 9.8 0.3 12-4.2s0.3-9.8-4.2-12c-61.6-29.8-111.4-80.5-140-142.6-1.529-3.043-4.624-5.096-8.199-5.1h-0.001zM511.8 1c-246.8 0-447.6 200.8-447.6 447.6 0 232.7 174.5 424.3 406 445.7 13.7 1.3 27.7 1.9 41.6 1.9 9.9 0 17.9-8 17.9-17.9s-8-17.9-17.9-17.9c-12.8 0-25.7-0.6-38.3-1.7-212.9-19.8-373.5-196-373.5-410.1 0-227 184.7-411.8 411.8-411.8s411.8 184.7 411.8 411.8c0 63.6-14.1 124.5-41.9 181.2-8.9 18.2-19.3 35.9-30.9 52.6-5.6 8.1-3.6 19.3 4.6 24.9 8.1 5.6 19.3 3.6 24.9-4.6 12.5-18.1 23.8-37.4 33.5-57.2 30.2-61.6 45.6-127.9 45.6-196.9-0.1-246.8-200.8-447.6-447.6-447.6zM588.5 359.1c-9.9 0-17.9 8-17.9 17.9v454.6c0 27.9 14.6 47.9 38.1 52.2 0.3 0.1 6.8 1.5 13.1-0.1v0.1c54.3-13 103.4-36.6 154.6-74.2 15.6-11.5 30.7-24.2 44.9-37.7 7.1-6.8 7.4-18.2 0.6-25.3s-18.2-7.4-25.3-0.6c-13 12.4-26.9 24.1-41.3 34.7-46.5 34.2-91 55.7-139.7 67.7h-1.1c-5.6-1.8-8.1-7.4-8.1-16.8v-454.6c0-9.9-8.1-17.9-17.9-17.9z" />
<glyph unicode="&#xe913;" glyph-name="new_song" d="M849.912-0.159c13.835 0 25.031 11.194 25.031 25.031v846.258c0 13.835-11.196 25.030-25.031 25.030s-25.031-11.195-25.031-25.030v-400.635c0 11.953-15.62 22.44-26.938 29.529l-560.302 350.646c-9.85 6.184-18.382 9.436-29.822 9.436-33.928 0-58.762-27.573-58.762-61.476v-701.259c0-33.879 24.125-61.501 58.053-61.501 11.441 0 20.974 3.276 30.824 9.486l560.889 350.634c11.317 7.089 26.056 17.574 26.056 29.528v-400.646c0.001-13.836 11.197-25.030 25.032-25.030zM768.465 438.351l-558.86-350.61c-1.906-1.173-0.44-1.809-2.494-1.809-4.62 0-7.993 3.665-7.993 11.439v701.258c0 7.822 3.373 11.415 7.993 11.415 2.054 0 2.323-0.611 4.229-1.785l557.957-350.623c4.643-2.909 4.936-7.285 4.936-9.656 0-2.345-1.149-6.721-5.768-9.629z" />
<glyph unicode="&#xe914;" glyph-name="player" d="M512 919.040c-260.148 0-471.040-210.892-471.040-471.040s210.892-471.040 471.040-471.040c260.148 0 471.040 210.892 471.040 471.040v0c0 260.148-210.892 471.040-471.040 471.040v0zM512 17.92c-237.527 0-430.080 192.553-430.080 430.080s192.553 430.080 430.080 430.080c237.527 0 430.080-192.553 430.080-430.080v0c0-237.527-192.553-430.080-430.080-430.080v0zM555.827 395.366l-105.267-70.246v245.76l184.32-122.88-42.598-28.467 32.154-22.938 71.885 51.405-286.72 204.8v-409.6l179.61 128.41-33.382 23.757z" />
<glyph unicode="&#xe915;" glyph-name="player_song" d="M215.618 42.166c-55.521 0-93.259 44.608-93.259 110.989v671.442c0 66.381 37.739 110.988 93.286 110.988 21.23 0 43.633-6.59 66.122-19.572l528.532-336.331c39.065-22.529 61.196-55.017 61.196-90.873 0-35.816-22.012-68.264-62.018-91.363l-526.754-335.111c-23.497-13.592-45.874-20.169-67.103-20.169zM215.645 881.271c-34.794 0-38.972-39.635-38.972-56.674v-671.442c0-17.040 4.177-56.675 38.945-56.675 11.404 0 25.028 4.243 38.965 12.293l526.662 335.111c23.166 13.406 35.933 29.556 35.933 44.925 0 15.409-12.729 31.599-34.967 44.435l-528.624 336.331c-12.927 7.439-26.526 11.695-37.943 11.695zM485.556 312.966c-4.522 0-8.924 2.24-11.51 6.352-3.991 6.338-2.081 14.719 4.256 18.723l7.333 4.615c6.352 3.979 14.732 2.095 18.723-4.27 4.005-6.337 2.096-14.718-4.256-18.722l-7.333-4.616c-2.241-1.404-4.747-2.081-7.213-2.081zM286.64 187.856c-4.521 0-8.924 2.24-11.51 6.352-3.991 6.337-2.081 14.732 4.269 18.722l152.387 95.859c6.338 3.964 14.719 2.095 18.723-4.27 3.991-6.337 2.082-14.732-4.269-18.723l-152.387-95.858c-2.241-1.406-4.747-2.081-7.213-2.081z" />
<glyph unicode="&#xe916;" glyph-name="qq" d="M116.435 366.286c-33.54-78.964-38.985-154.297-12.059-168.37 18.572-9.696 47.686 12.382 74.936 52.909 10.791-44.157 37.493-84.137 75.633-116.21-40.004-14.768-66.135-38.886-66.135-66.232 0-44.954 70.709-81.302 157.978-81.302 78.716 0 143.907 29.538 155.94 68.371 3.232 0.049 15.663 0.049 18.796 0 12.083-38.784 77.324-68.371 155.989-68.371 87.267 0 157.978 36.398 157.978 81.302 0 27.297-26.105 51.464-66.135 66.232 38.089 32.123 64.889 72.053 75.631 116.21 27.251-40.527 56.29-62.605 74.887-52.909 26.95 14.073 21.631 89.456-12.032 168.37-26.355 62.058-62.11 107.754-89.457 117.848 0.398 3.929 0.596 7.958 0.596 11.935 0 23.968-6.661 46.146-18.049 64.196 0.199 1.393 0.199 2.834 0.199 4.227 0 11.038-2.636 21.381-7.114 30.332-6.909 161.309-111.93 289.402-281.866 289.402-170.036 0-275.106-128.093-281.943-289.402-4.525-9.001-7.135-19.343-7.135-30.332 0-1.393 0.099-2.835 0.15-4.227-11.288-18.050-17.951-40.178-17.951-64.196 0-3.978 0.15-7.955 0.498-11.935-27.151-10.094-63.028-55.841-89.333-117.848z" />
<glyph unicode="&#xe917;" glyph-name="serch_song" horiz-adv-x="1025" d="M96.256 323.968h192c17.664 0 32 14.336 32 32s-14.336 32-32 32h-192c-17.664 0-32-14.336-32-32s14.336-32 32-32zM1015.040 56.576l-110.208 110.208c34.112 43.52 55.36 97.6 55.36 157.248 0 141.376-114.624 256-256 256s-256-114.624-256-256 114.624-256 256-256c59.648 0 113.728 21.248 157.248 55.36l110.208-110.208c12.032-11.968 31.36-11.968 43.392 0 11.968 12.032 11.968 31.36 0 43.392zM841.408 189.952c-0.576-0.512-1.344-0.704-1.856-1.28s-0.768-1.344-1.28-1.856c-34.624-33.792-81.792-54.784-134.080-54.784-106.048 0-192 85.952-192 192s85.952 192 192 192 192-85.952 192-192c0.064-52.288-20.928-99.456-54.784-134.080zM96.256 707.968h576c17.664 0 32 14.336 32 32s-14.336 32-32 32h-576c-17.664 0-32-14.336-32-32s14.336-32 32-32zM352.256 579.968h-256c-17.664 0-32-14.336-32-32s14.336-32 32-32h256c17.664 0 32 14.336 32 32s-14.336 32-32 32zM352.256 195.968h-256c-17.664 0-32-14.336-32-32s14.336-32 32-32h256c17.664 0 32 14.336 32 32s-14.336 32-32 32z" />
<glyph unicode="&#xe918;" glyph-name="skill" d="M246.72 632.704c-12.032 12.032-31.424 12.032-43.456 0l-194.24-194.048c-12.032-11.968-12.032-31.36 0-43.392l194.304-194.048c12.032-11.968 31.424-11.968 43.456 0 12.032 12.032 12.032 31.36 0 43.392l-172.672 172.352 172.608 172.416c12.032 11.968 12.032 31.36 0 43.328zM954.368 438.656l-194.304 194.048c-12.032 12.032-31.488 12.032-43.456 0-12.032-11.968-12.032-31.36 0-43.328l172.608-172.416-172.608-172.352c-12.032-12.032-12.032-31.36 0-43.392 11.968-11.968 31.424-11.968 43.456 0l194.304 194.048c12.032 11.968 12.032 31.424 0 43.392zM689.664 827.392c-15.296 8.96-34.88 3.648-43.712-11.84l-384-766.848c-8.896-15.424-3.648-35.2 11.712-44.032 15.296-8.96 34.88-3.648 43.776 11.84l383.936 766.848c8.896 15.36 3.648 35.136-11.712 44.032z" />
<glyph unicode="&#xe919;" glyph-name="song_list" d="M921.699 410.951h-566.083c-20.749 0-37.54 16.79-37.54 37.54 0 20.733 16.791 37.542 37.54 37.542h566.083c20.757 0 37.546-16.808 37.546-37.542 0-20.75-16.789-37.54-37.546-37.54v0zM921.699 711.275h-566.083c-20.749 0-37.54 16.809-37.54 37.541s16.791 37.54 37.54 37.54h566.083c20.757 0 37.546-16.809 37.546-37.54s-16.789-37.541-37.546-37.541v0zM136.51 73.092c-41.464 0-75.086 33.617-75.086 75.076 0 41.465 33.622 75.080 75.086 75.080 41.46 0 75.081-33.616 75.081-75.080 0-41.46-33.621-75.076-75.081-75.076v0zM136.51 373.411c-41.464 0-75.086 33.622-75.086 75.079 0 41.467 33.622 75.083 75.086 75.083 41.46 0 75.081-33.616 75.081-75.083 0-41.456-33.621-75.079-75.081-75.079v0zM136.51 673.736c-41.464 0-75.086 33.616-75.086 75.080s33.622 75.082 75.086 75.082c41.46 0 75.081-33.616 75.081-75.082s-33.621-75.080-75.081-75.080v0zM355.616 185.713h566.083c20.757 0 37.546-16.791 37.546-37.541s-16.789-37.541-37.546-37.541h-566.083c-20.749 0-37.54 16.791-37.54 37.541s16.79 37.541 37.54 37.541v0z" />
<glyph unicode="&#xe91a;" glyph-name="Status" d="M849.938 697.784c-61.665 0-111.67-49.713-111.67-111.012 0-21.94 6.404-42.389 17.449-59.608l-76.685-76.685c-22.715 15.925-50.424 25.281-80.341 25.281-34.929 0-66.859-12.749-91.339-33.821l-34.43 34.429c7.966 14.188 12.513 30.531 12.513 47.934 0 54.421-44.395 98.547-99.133 98.547s-99.109-44.127-99.109-98.547c0-12.932 2.51-25.279 7.065-36.592l-58.317-58.309c-17.715 11.747-38.993 18.601-61.881 18.601-61.689 0-111.67-49.714-111.67-111.012 0-61.325 49.981-111.012 111.67-111.012 61.665 0 111.671 49.689 111.671 111.012 0 18.445-4.533 35.837-12.544 51.146l55.788 55.788c16.183-11.426 35.965-18.144 57.328-18.144 16.99 0 32.981 4.252 46.961 11.739l39.853-39.848c-8.981-18.332-14.024-38.92-14.024-60.682 0-76.642 62.494-138.772 139.6-138.772s139.576 62.13 139.576 138.772c0 26.885-7.696 51.981-21.006 73.24l79.122 79.111c15.901-8.655 34.149-13.579 53.555-13.579 61.69 0 111.671 49.689 111.671 111.011 0 61.3-49.981 111.013-111.671 111.013z" />
<glyph unicode="&#xe91b;" glyph-name="suspend" d="M700 170.9c-55.4-37.6-120.3-57.4-187.6-57.4-184.7 0-334.9 150.2-334.9 334.9 0 66.3 19.4 130.5 56 185.4 7.5 11.2 4.4 26.4-6.8 33.8s-26.4 4.4-33.8-6.8c-42-63-64.2-136.5-64.2-212.5 0-211.6 172.2-383.7 383.7-383.7 77.1 0 151.4 22.8 214.9 65.8 11.2 7.6 14.1 22.7 6.5 33.9-7.5 11.3-22.7 14.1-33.8 6.6zM512.4 832.2c-81.9 0-160.1-25.5-226.1-73.6-10.9-8-13.3-23.2-5.3-34.1 7.9-10.9 23.2-13.3 34.1-5.3 57.6 42 125.8 64.2 197.3 64.2 184.7 0 334.9-150.2 334.9-334.9 0-71.5-22.2-139.7-64.2-197.3-8-10.9-5.6-26.2 5.3-34.1 4.3-3.2 9.4-4.7 14.4-4.7 7.5 0 15 3.5 19.7 10 48.2 66 73.6 144.1 73.6 226.1 0.1 211.5-172.1 383.7-383.7 383.7zM471.2 341.6v213.6c0 18-14.6 32.5-32.5 32.5s-32.5-14.6-32.5-32.5v-213.6c0-18 14.6-32.5 32.5-32.5s32.5 14.6 32.5 32.5zM618.8 341.6v213.6c0 18-14.6 32.5-32.5 32.5-18 0-32.5-14.6-32.5-32.5v-213.6c0-18 14.6-32.5 32.5-32.5s32.5 14.6 32.5 32.5z" />
<glyph unicode="&#xe91c;" glyph-name="suspend_song" d="M798.482-0.276c-17.64 0-31.939 14.312-31.939 31.952v830.584c0 17.64 14.299 31.939 31.939 31.939 17.647 0 31.946-14.299 31.946-31.939v-830.584c0-17.641-14.299-31.952-31.946-31.952zM223.469-0.276c-17.647 0-31.952 14.312-31.952 31.952v830.584c0 17.64 14.305 31.939 31.952 31.939 17.634 0 31.939-14.299 31.939-31.939v-830.584c0-17.641-14.306-31.952-31.939-31.952z" />
<glyph unicode="&#xe91d;" glyph-name="up" d="M509.928 572.841c7.241 7.99 17.58 7.897 24.782-0.334l270.569-309.222c7.759-8.867 21.236-9.765 30.103-2.007s9.765 21.236 2.007 30.103l-270.569 309.222c-24 27.429-64.127 27.792-88.507 0.889l-280.786-309.833c-7.912-8.73-7.248-22.222 1.482-30.133s22.222-7.248 30.133 1.482l280.786 309.833z" />
<glyph unicode="&#xe91e;" glyph-name="user" d="M502.365 439.156c-140.404 0-254.604 114.223-254.604 254.627 0 140.381 114.223 254.58 254.604 254.58s254.604-114.199 254.604-254.58c0-140.404-114.199-254.627-254.604-254.627zM502.365 901.818c-114.735 0-208.058-93.324-208.058-208.035 0-114.735 93.347-208.081 208.058-208.081s208.058 93.347 208.058 208.081c0 114.711-93.324 208.035-208.058 208.035zM918.342 32.652c-12.847 0-23.273 10.426-23.273 23.273 0 211.223-171.846 383.069-383.092 383.069-211.223 0-383.046-171.846-383.046-383.069 0-12.847-10.426-23.273-23.273-23.273s-23.273 10.426-23.273 23.273c0 236.893 192.721 429.615 429.591 429.615 236.893 0 429.638-192.721 429.638-429.615 0-12.847-10.426-23.273-23.273-23.273zM828.16-52.364h-563.945c-12.847 0-23.273 10.426-23.273 23.273s10.426 23.273 23.273 23.273h563.945c36.887 0 66.909 30.045 66.909 66.932 0 12.847 10.426 23.273 23.273 23.273s23.273-10.426 23.273-23.273c0-62.58-50.897-113.478-113.455-113.478zM113.594-47.779c-10.868 0-20.573 7.633-22.784 18.688-5.585 27.764-8.401 56.367-8.401 85.039 0 236.893 192.721 429.615 429.591 429.615 236.893 0 429.615-192.721 429.615-429.615 0-12.847-10.426-23.273-23.273-23.273s-23.273 10.426-23.273 23.273c0 211.223-171.846 383.069-383.069 383.069s-383.046-171.846-383.046-383.069c0-25.6 2.513-51.107 7.494-75.846 2.537-12.614-5.632-24.879-18.223-27.415-1.583-0.326-3.119-0.465-4.631-0.465z" />
<glyph unicode="&#xe91f;" glyph-name="vuejs" d="M819.072 891.392l0.128 0.256h-188.8l-118.4-204.8-118.272 204.8h-188.8v-0.213h-204.928l512-886.869 512 886.827z" />
<glyph unicode="&#xe920;" glyph-name="webo" d="M745.184 456.652q-15.37 3.080-19.958 9.209t-1.54 11.273l3.080 5.113q1.015 1.015 2.064 3.080t4.097 8.717 4.621 13.305 2.555 16.385-0.524 18.45-6.162 18.942-12.814 18.45q-14.353 14.353-37.393 18.45t-46.078 0.524-43.52-9.209-33.787-10.75l-13.305-6.162q-10.257-3.080-16.91-4.097t-10.257 0.524-5.637 3.080-1.54 7.177 1.015 9.732 2.555 12.814 3.080 13.83q0 12.289-1.54 23.038t-6.653 24.054-14.846 21.499-24.579 13.305-38.409 3.080-53.254-12.289q-35.852-12.289-72.719-36.344t-64.002-50.172-49.681-50.698-34.836-39.949l-11.273-16.385q-33.787-44.045-50.172-88.089t-15.37-66.56v-21.499q6.162-49.157 30.215-88.089t57.35-62.987 78.356-40.964 86.55-24.579 87.566-10.75q75.801-6.162 157.204 11.765t151.569 61.971 98.838 105.492q17.401 35.852 17.927 67.608t-10.75 51.713-29.199 35.328-33.787 22.547-28.15 9.209zM432.838 138.145q-110.604-5.113-187.913 43.029t-77.307 121.877q0 72.719 76.816 125.45t188.436 57.875 188.436-36.867 76.816-114.7q0-73.736-78.356-132.627t-186.896-64.002zM403.148 421.849q-29.69-3.080-53.254-13.83t-36.867-24.579-22.547-29.69-12.814-31.231-4.621-28.15-1.015-19.958l1.015-8.193v-4.097q0-3.080 2.064-12.289t5.637-16.91 11.765-16.91 19.467-15.37q67.608-32.772 125.973-19.958t94.218 58.889q14.353 17.401 18.942 43.029t-2.064 51.713-23.038 47.617-48.633 33.296-74.261 6.653zM366.279 228.267q-6.162-1.015-11.765-0.524t-10.257 2.064-9.209 3.571-7.668 5.637-5.637 7.177-4.097 8.193-1.54 9.732q0 11.273 6.162 22.022t16.91 18.45 24.054 8.717q9.209 1.015 17.927-0.524t14.846-5.113 10.75-8.193 6.653-10.75 2.064-13.305q0-11.273-6.653-21.499t-17.927-17.401-24.579-8.193zM453.321 302.003q-7.177-5.113-14.846-4.621t-10.75 6.653l-2.064 4.097q-1.015 2.064-1.015 4.097v4.097q0 3.080 1.015 5.113l2.064 4.097q1.015 2.064 3.080 3.080l3.080 4.097q8.193 6.162 15.862 5.113t10.75-8.193q3.080-4.097 2.555-9.209t-3.080-9.732-6.653-8.717zM816.888 516.066q6.162 0 11.273 3.080t8.193 7.668 4.097 9.732q1.015 1.015 1.015 3.080 12.289 116.765-81.93 133.15-27.659 5.113-51.221 1.015-7.177 0-12.289-3.571t-8.717-9.209-3.571-11.765q0-10.257 7.177-17.401t17.401-7.177q79.897 18.45 86.025-51.221 2.064-17.401-2.064-32.772 0-10.257 7.177-17.401t17.401-7.177zM799.486 804.849q-45.061 10.257-120.861-4.097-1.015 0-2.064-1.015l-1.015-2.064-1.015-1.015q-11.273-3.080-18.45-12.814t-7.177-21.006q0-15.37 10.257-25.595t24.579-10.257h3.080q1.015 0 4.621 1.015t7.668 1.54 8.717 2.064 8.193 3.080 13.83 1.54 25.103-1.54 32.772-7.668 35.852-15.37 35.852-25.595 31.231-37.884q26.644-60.431 10.257-116.765 0-1.015-0.524-2.064t-1.54-5.113-2.064-7.668-2.064-9.209-1.015-9.732q0-9.209 5.113-15.37t12.814-8.717 17.927-2.555q28.676 0 33.787 34.836 12.289 39.949 13.83 76.293t-5.113 64.002-19.958 51.713-30.739 40.964-38.933 30.739-41.489 22.022-41.489 13.305z" />
<glyph unicode="&#xe921;" glyph-name="webpack" d="M896.683 186.88l-369.749-208.213v162.133l230.357 126.165 139.349-80.085zM921.941 209.664v435.456l-135.253-77.696v-279.893l135.253-77.824zM124.843 186.88l369.664-208.213v162.133l-230.315 126.165-139.349-80.085zM99.541 209.664v435.456l135.253-77.696v-279.893l-135.253-77.824zM115.371 673.28l379.136 213.547v-156.757l-244.736-134.101-134.4 77.312zM906.155 673.28l-379.221 213.547v-156.757l244.736-134.101 134.4 77.312zM494.507 177.707l-227.285 124.416v246.485l227.243-130.645v-240.213zM526.933 177.707l227.243 124.416v246.485l-227.243-130.645v-240.213zM282.667 577.152l228.139 124.928 228.139-124.928-228.139-131.2-228.139 131.2z" />
<glyph unicode="&#xe922;" glyph-name="wechart" d="M691.23 596.944c4.507 0 8.986-0.1 13.443-0.267-28.388 129.985-162.366 228.411-323.384 228.411-181.675 0-328.95-125.292-328.95-279.845 0-90.299 50.286-170.592 128.32-221.762l-32.866-96.942 108.829 59.677c38.451-13.407 80.538-20.818 124.666-20.818 8.507 0 16.938 0.274 25.281 0.815-9.206 24.38-14.193 50.361-14.193 77.331 0.002 139.947 133.802 253.399 298.855 253.399zM494.811 686.75c26.828 0 48.577-21.748 48.577-48.577s-21.748-48.577-48.577-48.577-48.577 21.748-48.577 48.577c0.001 26.829 21.749 48.577 48.577 48.577zM268.823 589.596c-26.828 0-48.577 21.748-48.577 48.577s21.748 48.577 48.577 48.577 48.577-21.748 48.577-48.577c0-26.828-21.748-48.577-48.577-48.577zM968.964 343.544c0 130.059-124.345 235.492-277.733 235.492s-277.732-105.433-277.732-235.492 124.345-235.492 277.733-235.492c32.207 0 63.124 4.664 91.888 13.212l94.96-52.071-27.599 81.407c71.639 42.59 118.484 113.124 118.484 192.944zM604.458 377.337c-21.48 0-38.893 17.413-38.893 38.893s17.413 38.893 38.893 38.893c21.48 0 38.893-17.413 38.893-38.893s-17.413-38.893-38.893-38.893zM785.396 377.337c-21.48 0-38.893 17.413-38.893 38.893s17.413 38.893 38.893 38.893c21.48 0 38.893-17.413 38.893-38.893s-17.414-38.893-38.893-38.893z" />
<glyph unicode="&#xe923;" glyph-name="works" d="M514.048 419.328l325.632 186.368-329.728 206.848-325.632-202.752 329.728-190.464zM104.448 607.744l405.504 253.952 407.552-256-405.504-233.472-407.552 235.52zM903.168 470.528c10.24 6.144 22.528 2.048 28.672-8.192s2.048-22.528-8.192-28.672l-411.648-235.52-411.648 237.568c-10.24 6.144-12.288 18.432-8.192 28.672s18.432 12.288 28.672 8.192l391.168-225.28 391.168 223.232zM120.832 306.688l391.168-225.28 391.168 225.28c10.24 6.144 22.528 2.048 28.672-8.192s2.048-22.528-8.192-28.672l-411.648-237.568-411.648 237.568c-10.24 6.144-12.288 18.432-8.192 28.672s18.432 14.336 28.672 8.192z" />
<glyph unicode="&#xe924;" glyph-name="sample_reels" d="M637.867 704l-108.8 64-8.533 4.267-8.533-2.133-108.8-64-130.133 70.4-168.533-98.133v-192l168.533-98.133 4.267-2.133 61.867 34.133v87.467l-46.933 23.467-78.933-46.933-53.333 32v132.267l119.467 66.133 72.533-40.533-68.267-42.667 91.733-59.733-27.733-12.8v-202.667l170.667-98.133 2.133-2.133h2.133l174.933 98.133v202.667l-27.733 12.8 91.733 59.733-68.267 42.667 72.533 40.533 119.467-66.133v-132.267l-53.333-32-78.933 46.933-49.067-23.467v-87.467l61.867-34.133 170.667 100.267v192l-168.533 98.133-130.133-70.4zM386.133 629.333l134.4 85.333 134.4-85.333-134.4-83.2-134.4 83.2zM612.267 541.867l29.867-17.067v-134.4l-121.6-70.4-119.467 68.267v134.4l29.867 17.067 91.733-55.467 89.6 57.6zM736 462.933l14.933 8.533 27.733-17.067-12.8-8.533-29.867 17.067zM262.4 454.4l27.733 17.067 14.933-8.533-29.867-17.067-12.8 8.533zM520.533 893.867l12.8-6.4 160-87.467v-53.333l-53.333-29.867v49.067l-119.467 70.4-119.467-70.4v-51.2l-53.333 32v53.333l172.8 93.867zM844.8 418.133l38.4-25.6v-149.333l-132.267-78.933-42.667 21.333v110.933l-51.2 29.867-96-55.467v-61.867l96-53.333v-40.533l-134.4-78.933-134.4 78.933v40.533l96 53.333v61.867l-100.267 57.6-51.2-29.867v-110.933l-42.667-21.333-132.267 78.933v149.333l38.4 25.6-55.467 32-36.267-29.867v-211.2l183.467-106.667 44.8 23.467v-36.267l179.2-104.533 8.533-4.267 8.533 4.267 174.933 102.4 2.133 2.133v36.267l44.8-23.467 183.467 106.667v211.2l-36.267 29.867-53.333-34.133zM614.4 241.067v55.467l42.667-25.6v-53.333l-42.667 23.467zM386.133 270.933l42.667 25.6v-55.467l-42.667-21.333v51.2z" />
<glyph unicode="&#xe925;" glyph-name="sampleReels" d="M930.909 401.455h-279.273c-51.2 0-93.091-41.891-93.091-93.091v-279.273c0-51.2 41.891-93.091 93.091-93.091h279.273c51.2 0 93.091 41.891 93.091 93.091v279.273c0 51.2-41.891 93.091-93.091 93.091zM977.455 40.727c0-32.582-25.6-58.182-58.182-58.182h-256c-32.582 0-58.182 25.6-58.182 58.182v256c0 32.582 25.6 58.182 58.182 58.182h256c32.582 0 58.182-25.6 58.182-58.182v-256zM791.273 494.545c128 0 232.727 104.727 232.727 232.727s-104.727 232.727-232.727 232.727-232.727-104.727-232.727-232.727 104.727-232.727 232.727-232.727zM791.273 913.455c102.4 0 186.182-83.782 186.182-186.182s-83.782-186.182-186.182-186.182-186.182 83.782-186.182 186.182 83.782 186.182 186.182 186.182zM372.364 401.455h-279.273c-51.2 0-93.091-41.891-93.091-93.091v-279.273c0-51.2 41.891-93.091 93.091-93.091h279.273c51.2 0 93.091 41.891 93.091 93.091v279.273c0 51.2-41.891 93.091-93.091 93.091zM418.909 40.727c0-32.582-25.6-58.182-58.182-58.182h-256c-32.582 0-58.182 25.6-58.182 58.182v256c0 32.582 25.6 58.182 58.182 58.182h256c32.582 0 58.182-25.6 58.182-58.182v-256zM372.364 960h-279.273c-51.2 0-93.091-41.891-93.091-93.091v-279.273c0-51.2 41.891-93.091 93.091-93.091h279.273c51.2 0 93.091 41.891 93.091 93.091v279.273c0 51.2-41.891 93.091-93.091 93.091zM418.909 599.273c0-32.582-25.6-58.182-58.182-58.182h-256c-32.582 0-58.182 25.6-58.182 58.182v256c0 32.582 25.6 58.182 58.182 58.182h256c32.582 0 58.182-25.6 58.182-58.182v-256z" />
<glyph unicode="&#xe926;" glyph-name="zhihu" d="M544.949 398.578s0 71.387-34.779 75.050c-34.779 3.663-142.775 0-142.775 0v219.654h161.078s-1.83 73.219-32.949 73.219h-261.755l43.93 117.148s-65.897-3.663-89.692-45.761-98.844-252.604-98.844-252.604 25.627-10.983 67.726 20.134c42.101 31.116 56.743 86.033 56.743 86.033l76.879 3.663 1.83-223.316s-133.621 1.83-161.078 0c-27.457-1.83-42.101-75.050-42.101-75.050h203.182s-18.307-124.47-69.557-214.164c-53.085-89.692-151.929-161.078-151.929-161.078s71.387-29.287 140.947 10.983c69.557 42.101 120.811 223.316 120.811 223.316l162.912-203.182s14.643 97.013-1.83 124.47c-18.307 27.457-113.49 137.283-113.49 137.283l-42.101-36.607 29.287 120.811h177.552zM587.050 771.99l-1.83-660.793h65.897l23.795-82.37 115.321 82.37h162.912v660.793h-366.091zM879.92 184.416h-76.879l-97.013-75.050-21.965 75.050h-20.134v512.527h215.991v-512.527z" />
</font>
</defs>
</svg>
